<?xml version="1.0"?>
<svg version="1.1" xmlns="http://www.w3.org/2000/svg" width="400" height="200" style=""><path fill="#67008c" d="M45.8,94.4l-30.352,0l0,3.416l13.776,0l0,35.896l3.472,0l0-35.896l13.104,0l0-3.416z M67.51904,94.176q-6.272,0-10.528,4.536q-4.2,4.48-4.2,10.92l0,23.968l3.528,0l0-17.584l22.512,0l0,17.584l3.528,0l0-23.968q0-6.44-4.2-10.92q-4.368-4.536-10.64-4.536z M78.83104,112.544l-22.512,0l0-2.912q0-4.816,3.248-8.344q3.304-3.584,7.952-3.584t8.064,3.584q3.248,3.528,3.248,8.344l0,2.912z M119.59008,94.4l-30.352,0l0,3.416l13.776,0l0,35.896l3.472,0l0-35.896l13.104,0l0-3.416z M129.88512,122.848q0-2.688,1.904-4.872q1.904-2.296,4.592-2.296l0.728,0l10.472,0l0-3.472l-10.472,0l-0.728,0q-2.856-0.56-4.676-2.464t-1.82-4.536q0-3.304,1.932-5.236t5.292-1.932l19.04,0l0-3.528l-19.04,0q-4.312,0-7.504,3.192q-3.192,3.08-3.192,7.504q0,2.8,1.064,5.096t3.136,3.304q-2.072,1.512-3.136,3.976t-1.064,5.264q0,4.368,3.192,7.448q3.248,3.248,7.504,3.248l19.04,0l0-3.696l-19.04,0q-3.36,0-5.292-1.904t-1.932-5.096z M221.49216,94.4l-3.528,0l0,23.8q0,4.704-3.584,8.288t-8.288,3.584t-8.288-3.584t-3.584-8.288l0-23.8l-3.528,0l0,23.8q0,4.704-3.584,8.288q-3.696,3.584-8.344,3.584q-4.704,0-8.288-3.584t-3.584-8.288l0-23.8l-3.528,0l0,23.8q0,6.216,4.592,10.808t10.808,4.592q4.256,0,8.008-2.352q3.696-2.296,5.32-5.992q2.016,3.584,5.936,5.992q3.808,2.352,8.064,2.352q6.272,0,10.864-4.592q4.536-4.536,4.536-10.808l0-23.8z M256.8752,113.608q2.184-1.064,3.584-3.528q1.4-2.352,1.4-5.04q0-4.816-3.248-7.784q-3.248-2.912-8.176-2.912l-15.736,0l-0.672,0l-2.856,0l0,39.256l2.856,0l0.672,0l15.736,0q4.928,0,8.176-2.912q3.248-2.968,3.248-7.784q0-2.632-1.372-5.124t-3.612-4.172z M234.6992,97.2l15.736,0q3.36,0,5.544,2.296q2.352,2.464,2.352,5.544q0,2.52-1.848,4.648q-1.736,1.904-4.592,2.52l-1.456,0l-15.736,0l0-15.008z M250.4352,130.744l-15.736,0l0-15.008l15.736,0l1.456,0q2.856,0.616,4.592,2.52q1.848,2.128,1.848,4.648q0,3.024-2.352,5.488q-2.24,2.352-5.544,2.352z M279.93824,98.488l21.112,0l0-4.256l-21.112,0q-4.144,0-6.944,3.248q-2.856,3.304-2.856,8.008q0,4.256,2.856,7.392q2.8,3.192,6.944,3.192l5.6,0l5.712,0q2.52,0,4.48,2.128q1.848,2.24,1.848,4.872q0,3.136-1.82,5.096t-4.508,1.96l-21.112,0l0,3.472l21.112,0q4.2,0,7-2.912t2.8-7.616q0-4.256-2.8-7.392q-2.856-3.136-7-3.136l-5.712,0l-5.6,0q-2.576,0-4.424-2.24q-1.904-2.072-1.904-4.816q0-3.136,1.82-5.068t4.508-1.932z"/><path fill="#" d=""/></svg>
